<?xml version="1.0" encoding="utf-8"?>
<!-- Generator: Adobe Illustrator 16.2.1, SVG Export Plug-In . SVG Version: 6.00 Build 0)  -->
<!DOCTYPE svg PUBLIC "-//W3C//DTD SVG 1.1//EN" "http://www.w3.org/Graphics/SVG/1.1/DTD/svg11.dtd">
<svg version="1.1" id="レイヤー_1" xmlns="http://www.w3.org/2000/svg" xmlns:xlink="http://www.w3.org/1999/xlink" x="0px"
	 y="0px" width="22px" height="22px" viewBox="0 0 22 22" enable-background="new 0 0 22 22" xml:space="preserve">
<g>
	<path fill="#66515B" d="M10.925,20.896c-5.422,0-9.834-4.412-9.834-9.834c0-5.422,4.412-9.833,9.834-9.833
		c5.423,0,9.833,4.411,9.833,9.833C20.758,16.484,16.348,20.896,10.925,20.896z M10.925,2.229c-4.871,0-8.834,3.962-8.834,8.833
		c0,4.872,3.963,8.834,8.834,8.834c4.871,0,8.833-3.963,8.833-8.834C19.758,6.192,15.796,2.229,10.925,2.229z"/>
	<polygon fill="#66515B" points="15.445,11.062 6.404,6.304 12.919,11.062 6.404,15.822 	"/>
</g>
</svg>
